<svg xmlns="http://www.w3.org/2000/svg" xmlns:xlink="http://www.w3.org/1999/xlink" width="563.859" height="253.585" viewBox="0 0 563.859 253.585">
  <defs>
    <filter id="Rectángulo_1926" x="416.225" y="115.791" width="124.212" height="78.176" filterUnits="userSpaceOnUse">
      <feOffset dy="2" input="SourceAlpha"/>
      <feGaussianBlur stdDeviation="1" result="blur"/>
      <feFlood flood-opacity="0.043"/>
      <feComposite operator="in" in2="blur"/>
      <feComposite in="SourceGraphic"/>
    </filter>
    <filter id="Trazado_419" x="219.73" y="153.02" width="124.212" height="78.176" filterUnits="userSpaceOnUse">
      <feOffset dy="2" input="SourceAlpha"/>
      <feGaussianBlur stdDeviation="1" result="blur-2"/>
      <feFlood flood-opacity="0.043"/>
      <feComposite operator="in" in2="blur-2"/>
      <feComposite in="SourceGraphic"/>
    </filter>
    <clipPath id="clip-path">
      <rect id="Rectángulo_1928" data-name="Rectángulo 1928" width="51.277" height="49.763" fill="#fff"/>
    </clipPath>
    <filter id="Rectángulo_1929" x="11.49" y="26.901" width="124.212" height="78.176" filterUnits="userSpaceOnUse">
      <feOffset dy="2" input="SourceAlpha"/>
      <feGaussianBlur stdDeviation="1" result="blur-3"/>
      <feFlood flood-opacity="0.043"/>
      <feComposite operator="in" in2="blur-3"/>
      <feComposite in="SourceGraphic"/>
    </filter>
    <clipPath id="clip-path-2">
      <rect id="Rectángulo_1930" data-name="Rectángulo 1930" width="52.06" height="50.523" fill="#fff"/>
    </clipPath>
  </defs>
  <g id="Grupo_7252" data-name="Grupo 7252" transform="translate(-577 -133.477)">
    <g id="Grupo_7245" data-name="Grupo 7245" transform="translate(996.225 250.268)">
      <g transform="matrix(1, 0, 0, 1, -419.23, -116.79)" filter="url(#Rectángulo_1926)">
        <rect id="Rectángulo_1926-2" data-name="Rectángulo 1926" width="118.212" height="72.176" transform="translate(419.23 116.79)" fill="#fff"/>
      </g>
      <ellipse id="Elipse_33" data-name="Elipse 33" cx="3.914" cy="3.799" rx="3.914" ry="3.799" transform="translate(103.339 58.501)" fill="#f9d048"/>
      <path id="Trazado_411" data-name="Trazado 411" d="M1115.88,316.751v40.836h37.38" transform="translate(-1008.626 -254.451)" fill="none" stroke="#ffd037" stroke-width="3"/>
      <path id="Trazado_412" data-name="Trazado 412" d="M1081.467,270.838h-31.049a3.84,3.84,0,0,0-3.888,3.767v33.9l7.767-7.535h27.17a3.84,3.84,0,0,0,3.888-3.766v-22.6A3.84,3.84,0,0,0,1081.467,270.838Zm0,26.37H1054.3l-3.879,3.766V274.605h31.049Z" transform="translate(-1007.03 -253.395)" fill="#ffd037"/>
    </g>
    <g id="Grupo_7247" data-name="Grupo 7247" transform="translate(799.73 260.715)">
      <g transform="matrix(1, 0, 0, 1, -222.73, -127.24)" filter="url(#Trazado_419)">
        <path id="Trazado_419-2" data-name="Trazado 419" d="M0,0H118.212V72.176H0Z" transform="translate(222.73 154.02)" fill="#fff"/>
      </g>
      <ellipse id="Elipse_35" data-name="Elipse 35" cx="3.914" cy="3.799" rx="3.914" ry="3.799" transform="translate(103.338 85.281)" fill="#3578e1"/>
      <path id="Trazado_413" data-name="Trazado 413" d="M914.955,352.758h56.562V263.677h43.838" transform="translate(-807.507 -263.677)" fill="none" stroke="#3578e1" stroke-width="3"/>
      <g id="Grupo_7246" data-name="Grupo 7246" transform="translate(28.967 38.937)" clip-path="url(#clip-path)">
        <path id="Trazado_414" data-name="Trazado 414" d="M881.73,326.486V309.9H866.774v6.221h-12.82V309.9H839v16.588h14.956v-6.22h4.273V341h8.547v6.221H881.73V330.634H866.774v6.22H862.5V320.266h4.273v6.22Z" transform="translate(-834.726 -303.678)" fill="#3578e1"/>
      </g>
    </g>
    <g id="Grupo_7249" data-name="Grupo 7249" transform="translate(577.007 134.977)">
      <g transform="matrix(1, 0, 0, 1, -0.01, -1.5)" filter="url(#Rectángulo_1929)">
        <rect id="Rectángulo_1929-2" data-name="Rectángulo 1929" width="118.212" height="72.176" transform="translate(14.49 27.9)" fill="#fff"/>
      </g>
      <ellipse id="Elipse_37" data-name="Elipse 37" cx="3.914" cy="3.799" rx="3.914" ry="3.799" transform="translate(117.82 84.902)" fill="#1eb060"/>
      <path id="Trazado_415" data-name="Trazado 415" d="M701.809,225.767v74.075H813.563" transform="translate(-579.879 -137.066)" fill="none" stroke="#1eb060" stroke-width="3"/>
      <path id="Trazado_416" data-name="Trazado 416" d="M602.842,171.825V134.977H577.007" transform="translate(-577.007 -134.977)" fill="none" stroke="#3578e1" stroke-width="3"/>
      <g id="Grupo_7248" data-name="Grupo 7248" transform="translate(43.839 34.378)" clip-path="url(#clip-path-2)">
        <path id="Trazado_417" data-name="Trazado 417" d="M665.438,202.691a25.5,25.5,0,0,1-7.657-1.179,2.169,2.169,0,0,0-2.191.505l-3.406,4.147a32.476,32.476,0,0,1-14.945-14.378l4.229-3.494a2.1,2.1,0,0,0,.521-2.147,22.835,22.835,0,0,1-1.214-7.431,2.136,2.136,0,0,0-2.147-2.085h-7.506c-1.171,0-2.581.506-2.581,2.085,0,19.556,16.768,35.808,36.9,35.808a2.229,2.229,0,0,0,2.147-2.484v-7.263A2.135,2.135,0,0,0,665.438,202.691Z" transform="translate(-622.032 -170.314)" fill="#1eb060"/>
      </g>
    </g>
    <path id="Trazado_418" data-name="Trazado 418" d="M577,308h52.757v83.044" transform="translate(0 -3.982)" fill="none" stroke="#f9d048" stroke-width="3"/>
  </g>
</svg>
